<?xml version="1.0" encoding="utf-8" standalone="no"?>
<!DOCTYPE svg PUBLIC "-//W3C//DTD SVG 1.1//EN"
  "http://www.w3.org/Graphics/SVG/1.1/DTD/svg11.dtd">
<!-- Created with matplotlib (https://matplotlib.org/) -->
<svg height="1023.23625pt" version="1.1" viewBox="0 0 611.2125 1023.23625" width="611.2125pt" xmlns="http://www.w3.org/2000/svg" xmlns:xlink="http://www.w3.org/1999/xlink">
 <metadata>
  <rdf:RDF xmlns:cc="http://creativecommons.org/ns#" xmlns:dc="http://purl.org/dc/elements/1.1/" xmlns:rdf="http://www.w3.org/1999/02/22-rdf-syntax-ns#">
   <cc:Work>
    <dc:type rdf:resource="http://purl.org/dc/dcmitype/StillImage"/>
    <dc:date>2020-10-14T07:52:29.625333</dc:date>
    <dc:format>image/svg+xml</dc:format>
    <dc:creator>
     <cc:Agent>
      <dc:title>Matplotlib v3.3.2, https://matplotlib.org/</dc:title>
     </cc:Agent>
    </dc:creator>
   </cc:Work>
  </rdf:RDF>
 </metadata>
 <defs>
  <style type="text/css">*{stroke-linecap:butt;stroke-linejoin:round;}</style>
 </defs>
 <g id="figure_1">
  <g id="patch_1">
   <path d="M 0 1023.23625 
L 611.2125 1023.23625 
L 611.2125 0 
L 0 0 
z
" style="fill:none;"/>
  </g>
  <g id="axes_1">
   <g id="patch_2">
    <path d="M 46.0125 294.988235 
L 604.0125 294.988235 
L 604.0125 7.2 
L 46.0125 7.2 
z
" style="fill:#ffffff;"/>
   </g>
   <g id="matplotlib.axis_1">
    <g id="xtick_1">
     <g id="line2d_1">
      <defs>
       <path d="M 0 0 
L 0 3.5 
" id="m35f0528807" style="stroke:#000000;stroke-width:0.8;"/>
      </defs>
      <g>
       <use style="stroke:#000000;stroke-width:0.8;" x="71.376136" xlink:href="#m35f0528807" y="294.988235"/>
      </g>
     </g>
     <g id="text_1">
      <!-- −5.0 -->
      <g transform="translate(59.23473 309.586673)scale(0.1 -0.1)">
       <defs>
        <path d="M 10.59375 35.5 
L 73.1875 35.5 
L 73.1875 27.203125 
L 10.59375 27.203125 
z
" id="DejaVuSans-8722"/>
        <path d="M 10.796875 72.90625 
L 49.515625 72.90625 
L 49.515625 64.59375 
L 19.828125 64.59375 
L 19.828125 46.734375 
Q 21.96875 47.46875 24.109375 47.828125 
Q 26.265625 48.1875 28.421875 48.1875 
Q 40.625 48.1875 47.75 41.5 
Q 54.890625 34.8125 54.890625 23.390625 
Q 54.890625 11.625 47.5625 5.09375 
Q 40.234375 -1.421875 26.90625 -1.421875 
Q 22.3125 -1.421875 17.546875 -0.640625 
Q 12.796875 0.140625 7.71875 1.703125 
L 7.71875 11.625 
Q 12.109375 9.234375 16.796875 8.0625 
Q 21.484375 6.890625 26.703125 6.890625 
Q 35.15625 6.890625 40.078125 11.328125 
Q 45.015625 15.765625 45.015625 23.390625 
Q 45.015625 31 40.078125 35.4375 
Q 35.15625 39.890625 26.703125 39.890625 
Q 22.75 39.890625 18.8125 39.015625 
Q 14.890625 38.140625 10.796875 36.28125 
z
" id="DejaVuSans-53"/>
        <path d="M 10.6875 12.40625 
L 21 12.40625 
L 21 0 
L 10.6875 0 
z
" id="DejaVuSans-46"/>
        <path d="M 31.78125 66.40625 
Q 24.171875 66.40625 20.328125 58.90625 
Q 16.5 51.421875 16.5 36.375 
Q 16.5 21.390625 20.328125 13.890625 
Q 24.171875 6.390625 31.78125 6.390625 
Q 39.453125 6.390625 43.28125 13.890625 
Q 47.125 21.390625 47.125 36.375 
Q 47.125 51.421875 43.28125 58.90625 
Q 39.453125 66.40625 31.78125 66.40625 
z
M 31.78125 74.21875 
Q 44.046875 74.21875 50.515625 64.515625 
Q 56.984375 54.828125 56.984375 36.375 
Q 56.984375 17.96875 50.515625 8.265625 
Q 44.046875 -1.421875 31.78125 -1.421875 
Q 19.53125 -1.421875 13.0625 8.265625 
Q 6.59375 17.96875 6.59375 36.375 
Q 6.59375 54.828125 13.0625 64.515625 
Q 19.53125 74.21875 31.78125 74.21875 
z
" id="DejaVuSans-48"/>
       </defs>
       <use xlink:href="#DejaVuSans-8722"/>
       <use x="83.789062" xlink:href="#DejaVuSans-53"/>
       <use x="147.412109" xlink:href="#DejaVuSans-46"/>
       <use x="179.199219" xlink:href="#DejaVuSans-48"/>
      </g>
     </g>
    </g>
    <g id="xtick_2">
     <g id="line2d_2">
      <g>
       <use style="stroke:#000000;stroke-width:0.8;" x="134.785227" xlink:href="#m35f0528807" y="294.988235"/>
      </g>
     </g>
     <g id="text_2">
      <!-- −2.5 -->
      <g transform="translate(122.643821 309.586673)scale(0.1 -0.1)">
       <defs>
        <path d="M 19.1875 8.296875 
L 53.609375 8.296875 
L 53.609375 0 
L 7.328125 0 
L 7.328125 8.296875 
Q 12.9375 14.109375 22.625 23.890625 
Q 32.328125 33.6875 34.8125 36.53125 
Q 39.546875 41.84375 41.421875 45.53125 
Q 43.3125 49.21875 43.3125 52.78125 
Q 43.3125 58.59375 39.234375 62.25 
Q 35.15625 65.921875 28.609375 65.921875 
Q 23.96875 65.921875 18.8125 64.3125 
Q 13.671875 62.703125 7.8125 59.421875 
L 7.8125 69.390625 
Q 13.765625 71.78125 18.9375 73 
Q 24.125 74.21875 28.421875 74.21875 
Q 39.75 74.21875 46.484375 68.546875 
Q 53.21875 62.890625 53.21875 53.421875 
Q 53.21875 48.921875 51.53125 44.890625 
Q 49.859375 40.875 45.40625 35.40625 
Q 44.1875 33.984375 37.640625 27.21875 
Q 31.109375 20.453125 19.1875 8.296875 
z
" id="DejaVuSans-50"/>
       </defs>
       <use xlink:href="#DejaVuSans-8722"/>
       <use x="83.789062" xlink:href="#DejaVuSans-50"/>
       <use x="147.412109" xlink:href="#DejaVuSans-46"/>
       <use x="179.199219" xlink:href="#DejaVuSans-53"/>
      </g>
     </g>
    </g>
    <g id="xtick_3">
     <g id="line2d_3">
      <g>
       <use style="stroke:#000000;stroke-width:0.8;" x="198.194318" xlink:href="#m35f0528807" y="294.988235"/>
      </g>
     </g>
     <g id="text_3">
      <!-- 0.0 -->
      <g transform="translate(190.242756 309.586673)scale(0.1 -0.1)">
       <use xlink:href="#DejaVuSans-48"/>
       <use x="63.623047" xlink:href="#DejaVuSans-46"/>
       <use x="95.410156" xlink:href="#DejaVuSans-48"/>
      </g>
     </g>
    </g>
    <g id="xtick_4">
     <g id="line2d_4">
      <g>
       <use style="stroke:#000000;stroke-width:0.8;" x="261.603409" xlink:href="#m35f0528807" y="294.988235"/>
      </g>
     </g>
     <g id="text_4">
      <!-- 2.5 -->
      <g transform="translate(253.651847 309.586673)scale(0.1 -0.1)">
       <use xlink:href="#DejaVuSans-50"/>
       <use x="63.623047" xlink:href="#DejaVuSans-46"/>
       <use x="95.410156" xlink:href="#DejaVuSans-53"/>
      </g>
     </g>
    </g>
    <g id="xtick_5">
     <g id="line2d_5">
      <g>
       <use style="stroke:#000000;stroke-width:0.8;" x="325.0125" xlink:href="#m35f0528807" y="294.988235"/>
      </g>
     </g>
     <g id="text_5">
      <!-- 5.0 -->
      <g transform="translate(317.060937 309.586673)scale(0.1 -0.1)">
       <use xlink:href="#DejaVuSans-53"/>
       <use x="63.623047" xlink:href="#DejaVuSans-46"/>
       <use x="95.410156" xlink:href="#DejaVuSans-48"/>
      </g>
     </g>
    </g>
    <g id="xtick_6">
     <g id="line2d_6">
      <g>
       <use style="stroke:#000000;stroke-width:0.8;" x="388.421591" xlink:href="#m35f0528807" y="294.988235"/>
      </g>
     </g>
     <g id="text_6">
      <!-- 7.5 -->
      <g transform="translate(380.470028 309.586673)scale(0.1 -0.1)">
       <defs>
        <path d="M 8.203125 72.90625 
L 55.078125 72.90625 
L 55.078125 68.703125 
L 28.609375 0 
L 18.3125 0 
L 43.21875 64.59375 
L 8.203125 64.59375 
z
" id="DejaVuSans-55"/>
       </defs>
       <use xlink:href="#DejaVuSans-55"/>
       <use x="63.623047" xlink:href="#DejaVuSans-46"/>
       <use x="95.410156" xlink:href="#DejaVuSans-53"/>
      </g>
     </g>
    </g>
    <g id="xtick_7">
     <g id="line2d_7">
      <g>
       <use style="stroke:#000000;stroke-width:0.8;" x="451.830682" xlink:href="#m35f0528807" y="294.988235"/>
      </g>
     </g>
     <g id="text_7">
      <!-- 10.0 -->
      <g transform="translate(440.697869 309.586673)scale(0.1 -0.1)">
       <defs>
        <path d="M 12.40625 8.296875 
L 28.515625 8.296875 
L 28.515625 63.921875 
L 10.984375 60.40625 
L 10.984375 69.390625 
L 28.421875 72.90625 
L 38.28125 72.90625 
L 38.28125 8.296875 
L 54.390625 8.296875 
L 54.390625 0 
L 12.40625 0 
z
" id="DejaVuSans-49"/>
       </defs>
       <use xlink:href="#DejaVuSans-49"/>
       <use x="63.623047" xlink:href="#DejaVuSans-48"/>
       <use x="127.246094" xlink:href="#DejaVuSans-46"/>
       <use x="159.033203" xlink:href="#DejaVuSans-48"/>
      </g>
     </g>
    </g>
    <g id="xtick_8">
     <g id="line2d_8">
      <g>
       <use style="stroke:#000000;stroke-width:0.8;" x="515.239773" xlink:href="#m35f0528807" y="294.988235"/>
      </g>
     </g>
     <g id="text_8">
      <!-- 12.5 -->
      <g transform="translate(504.10696 309.586673)scale(0.1 -0.1)">
       <use xlink:href="#DejaVuSans-49"/>
       <use x="63.623047" xlink:href="#DejaVuSans-50"/>
       <use x="127.246094" xlink:href="#DejaVuSans-46"/>
       <use x="159.033203" xlink:href="#DejaVuSans-53"/>
      </g>
     </g>
    </g>
    <g id="xtick_9">
     <g id="line2d_9">
      <g>
       <use style="stroke:#000000;stroke-width:0.8;" x="578.648864" xlink:href="#m35f0528807" y="294.988235"/>
      </g>
     </g>
     <g id="text_9">
      <!-- 15.0 -->
      <g transform="translate(567.516051 309.586673)scale(0.1 -0.1)">
       <use xlink:href="#DejaVuSans-49"/>
       <use x="63.623047" xlink:href="#DejaVuSans-53"/>
       <use x="127.246094" xlink:href="#DejaVuSans-46"/>
       <use x="159.033203" xlink:href="#DejaVuSans-48"/>
      </g>
     </g>
    </g>
    <g id="text_10">
     <!-- t -->
     <g transform="translate(323.052344 323.264798)scale(0.1 -0.1)">
      <defs>
       <path d="M 18.3125 70.21875 
L 18.3125 54.6875 
L 36.8125 54.6875 
L 36.8125 47.703125 
L 18.3125 47.703125 
L 18.3125 18.015625 
Q 18.3125 11.328125 20.140625 9.421875 
Q 21.96875 7.515625 27.59375 7.515625 
L 36.8125 7.515625 
L 36.8125 0 
L 27.59375 0 
Q 17.1875 0 13.234375 3.875 
Q 9.28125 7.765625 9.28125 18.015625 
L 9.28125 47.703125 
L 2.6875 47.703125 
L 2.6875 54.6875 
L 9.28125 54.6875 
L 9.28125 70.21875 
z
" id="DejaVuSans-116"/>
      </defs>
      <use xlink:href="#DejaVuSans-116"/>
     </g>
    </g>
   </g>
   <g id="matplotlib.axis_2">
    <g id="ytick_1">
     <g id="line2d_10">
      <defs>
       <path d="M 0 0 
L -3.5 0 
" id="m38f5bc59ef" style="stroke:#000000;stroke-width:0.8;"/>
      </defs>
      <g>
       <use style="stroke:#000000;stroke-width:0.8;" x="46.0125" xlink:href="#m38f5bc59ef" y="281.906952"/>
      </g>
     </g>
     <g id="text_11">
      <!-- 0 -->
      <g transform="translate(32.65 285.706171)scale(0.1 -0.1)">
       <use xlink:href="#DejaVuSans-48"/>
      </g>
     </g>
    </g>
    <g id="ytick_2">
     <g id="line2d_11">
      <g>
       <use style="stroke:#000000;stroke-width:0.8;" x="46.0125" xlink:href="#m38f5bc59ef" y="229.581818"/>
      </g>
     </g>
     <g id="text_12">
      <!-- 2000 -->
      <g transform="translate(13.5625 233.381037)scale(0.1 -0.1)">
       <use xlink:href="#DejaVuSans-50"/>
       <use x="63.623047" xlink:href="#DejaVuSans-48"/>
       <use x="127.246094" xlink:href="#DejaVuSans-48"/>
       <use x="190.869141" xlink:href="#DejaVuSans-48"/>
      </g>
     </g>
    </g>
    <g id="ytick_3">
     <g id="line2d_12">
      <g>
       <use style="stroke:#000000;stroke-width:0.8;" x="46.0125" xlink:href="#m38f5bc59ef" y="177.256684"/>
      </g>
     </g>
     <g id="text_13">
      <!-- 4000 -->
      <g transform="translate(13.5625 181.055903)scale(0.1 -0.1)">
       <defs>
        <path d="M 37.796875 64.3125 
L 12.890625 25.390625 
L 37.796875 25.390625 
z
M 35.203125 72.90625 
L 47.609375 72.90625 
L 47.609375 25.390625 
L 58.015625 25.390625 
L 58.015625 17.1875 
L 47.609375 17.1875 
L 47.609375 0 
L 37.796875 0 
L 37.796875 17.1875 
L 4.890625 17.1875 
L 4.890625 26.703125 
z
" id="DejaVuSans-52"/>
       </defs>
       <use xlink:href="#DejaVuSans-52"/>
       <use x="63.623047" xlink:href="#DejaVuSans-48"/>
       <use x="127.246094" xlink:href="#DejaVuSans-48"/>
       <use x="190.869141" xlink:href="#DejaVuSans-48"/>
      </g>
     </g>
    </g>
    <g id="ytick_4">
     <g id="line2d_13">
      <g>
       <use style="stroke:#000000;stroke-width:0.8;" x="46.0125" xlink:href="#m38f5bc59ef" y="124.931551"/>
      </g>
     </g>
     <g id="text_14">
      <!-- 6000 -->
      <g transform="translate(13.5625 128.73077)scale(0.1 -0.1)">
       <defs>
        <path d="M 33.015625 40.375 
Q 26.375 40.375 22.484375 35.828125 
Q 18.609375 31.296875 18.609375 23.390625 
Q 18.609375 15.53125 22.484375 10.953125 
Q 26.375 6.390625 33.015625 6.390625 
Q 39.65625 6.390625 43.53125 10.953125 
Q 47.40625 15.53125 47.40625 23.390625 
Q 47.40625 31.296875 43.53125 35.828125 
Q 39.65625 40.375 33.015625 40.375 
z
M 52.59375 71.296875 
L 52.59375 62.3125 
Q 48.875 64.0625 45.09375 64.984375 
Q 41.3125 65.921875 37.59375 65.921875 
Q 27.828125 65.921875 22.671875 59.328125 
Q 17.53125 52.734375 16.796875 39.40625 
Q 19.671875 43.65625 24.015625 45.921875 
Q 28.375 48.1875 33.59375 48.1875 
Q 44.578125 48.1875 50.953125 41.515625 
Q 57.328125 34.859375 57.328125 23.390625 
Q 57.328125 12.15625 50.6875 5.359375 
Q 44.046875 -1.421875 33.015625 -1.421875 
Q 20.359375 -1.421875 13.671875 8.265625 
Q 6.984375 17.96875 6.984375 36.375 
Q 6.984375 53.65625 15.1875 63.9375 
Q 23.390625 74.21875 37.203125 74.21875 
Q 40.921875 74.21875 44.703125 73.484375 
Q 48.484375 72.75 52.59375 71.296875 
z
" id="DejaVuSans-54"/>
       </defs>
       <use xlink:href="#DejaVuSans-54"/>
       <use x="63.623047" xlink:href="#DejaVuSans-48"/>
       <use x="127.246094" xlink:href="#DejaVuSans-48"/>
       <use x="190.869141" xlink:href="#DejaVuSans-48"/>
      </g>
     </g>
    </g>
    <g id="ytick_5">
     <g id="line2d_14">
      <g>
       <use style="stroke:#000000;stroke-width:0.8;" x="46.0125" xlink:href="#m38f5bc59ef" y="72.606417"/>
      </g>
     </g>
     <g id="text_15">
      <!-- 8000 -->
      <g transform="translate(13.5625 76.405636)scale(0.1 -0.1)">
       <defs>
        <path d="M 31.78125 34.625 
Q 24.75 34.625 20.71875 30.859375 
Q 16.703125 27.09375 16.703125 20.515625 
Q 16.703125 13.921875 20.71875 10.15625 
Q 24.75 6.390625 31.78125 6.390625 
Q 38.8125 6.390625 42.859375 10.171875 
Q 46.921875 13.96875 46.921875 20.515625 
Q 46.921875 27.09375 42.890625 30.859375 
Q 38.875 34.625 31.78125 34.625 
z
M 21.921875 38.8125 
Q 15.578125 40.375 12.03125 44.71875 
Q 8.5 49.078125 8.5 55.328125 
Q 8.5 64.0625 14.71875 69.140625 
Q 20.953125 74.21875 31.78125 74.21875 
Q 42.671875 74.21875 48.875 69.140625 
Q 55.078125 64.0625 55.078125 55.328125 
Q 55.078125 49.078125 51.53125 44.71875 
Q 48 40.375 41.703125 38.8125 
Q 48.828125 37.15625 52.796875 32.3125 
Q 56.78125 27.484375 56.78125 20.515625 
Q 56.78125 9.90625 50.3125 4.234375 
Q 43.84375 -1.421875 31.78125 -1.421875 
Q 19.734375 -1.421875 13.25 4.234375 
Q 6.78125 9.90625 6.78125 20.515625 
Q 6.78125 27.484375 10.78125 32.3125 
Q 14.796875 37.15625 21.921875 38.8125 
z
M 18.3125 54.390625 
Q 18.3125 48.734375 21.84375 45.5625 
Q 25.390625 42.390625 31.78125 42.390625 
Q 38.140625 42.390625 41.71875 45.5625 
Q 45.3125 48.734375 45.3125 54.390625 
Q 45.3125 60.0625 41.71875 63.234375 
Q 38.140625 66.40625 31.78125 66.40625 
Q 25.390625 66.40625 21.84375 63.234375 
Q 18.3125 60.0625 18.3125 54.390625 
z
" id="DejaVuSans-56"/>
       </defs>
       <use xlink:href="#DejaVuSans-56"/>
       <use x="63.623047" xlink:href="#DejaVuSans-48"/>
       <use x="127.246094" xlink:href="#DejaVuSans-48"/>
       <use x="190.869141" xlink:href="#DejaVuSans-48"/>
      </g>
     </g>
    </g>
    <g id="ytick_6">
     <g id="line2d_15">
      <g>
       <use style="stroke:#000000;stroke-width:0.8;" x="46.0125" xlink:href="#m38f5bc59ef" y="20.281283"/>
      </g>
     </g>
     <g id="text_16">
      <!-- 10000 -->
      <g transform="translate(7.2 24.080502)scale(0.1 -0.1)">
       <use xlink:href="#DejaVuSans-49"/>
       <use x="63.623047" xlink:href="#DejaVuSans-48"/>
       <use x="127.246094" xlink:href="#DejaVuSans-48"/>
       <use x="190.869141" xlink:href="#DejaVuSans-48"/>
       <use x="254.492188" xlink:href="#DejaVuSans-48"/>
      </g>
     </g>
    </g>
   </g>
   <g id="line2d_16">
    <path clip-path="url(#p5778a47175)" d="M 71.376136 280.15593 
L 88.640674 279.45268 
L 103.366308 278.636378 
L 116.060821 277.721279 
L 127.739773 276.659385 
L 138.403163 275.462024 
L 148.050993 274.151962 
L 156.683262 272.763637 
L 164.80775 271.240205 
L 172.424457 269.593433 
L 179.533385 267.840643 
L 186.642312 265.854413 
L 193.243458 263.778073 
L 199.336824 261.643454 
L 205.43019 259.280846 
L 211.523557 256.671572 
L 217.109142 254.046949 
L 222.694728 251.184828 
L 228.280313 248.071233 
L 233.865899 244.692941 
L 239.451484 241.037865 
L 245.03707 237.09548 
L 250.622656 232.857296 
L 256.208241 228.317348 
L 261.793827 223.4727 
L 267.379412 218.323941 
L 272.964998 212.875641 
L 279.058364 206.601052 
L 285.15173 199.99869 
L 291.752877 192.505227 
L 298.861804 184.084734 
L 306.986292 174.095104 
L 317.141902 161.221951 
L 345.577611 124.9353 
L 353.702099 115.057975 
L 360.811026 106.761234 
L 367.412172 99.400164 
L 373.505538 92.931752 
L 379.598905 86.799427 
L 385.18449 81.486444 
L 390.770076 76.4756 
L 396.355661 71.769602 
L 401.941247 67.367377 
L 407.526833 63.26455 
L 413.112418 59.453946 
L 418.698004 55.92609 
L 424.283589 52.669691 
L 429.869175 49.672095 
L 435.45476 46.919692 
L 441.040346 44.39828 
L 447.133712 41.894072 
L 453.227078 39.628708 
L 459.828225 37.422631 
L 466.429371 35.452349 
L 473.538299 33.569285 
L 481.155006 31.798209 
L 488.771714 30.253709 
L 496.896202 28.826065 
L 506.036251 27.455834 
L 515.684081 26.241524 
L 526.347471 25.132498 
L 538.026423 24.1496 
L 551.228716 23.273316 
L 565.954351 22.525931 
L 578.648864 22.032305 
L 578.648864 22.032305 
" style="fill:none;stroke:#006ba4;stroke-linecap:square;stroke-width:1.5;"/>
   </g>
   <g id="line2d_17">
    <path clip-path="url(#p5778a47175)" d="M 71.376136 281.895075 
L 135.864261 281.756049 
L 161.253286 281.496752 
L 178.010043 281.11394 
L 190.196775 280.627162 
L 200.352385 280.001555 
L 208.476873 279.289334 
L 215.585801 278.45371 
L 221.679167 277.531649 
L 227.264752 276.476162 
L 232.342557 275.302827 
L 236.912582 274.038171 
L 241.482606 272.540233 
L 245.544851 270.98119 
L 249.607095 269.175748 
L 253.161558 267.366968 
L 256.716022 265.318335 
L 260.270485 263.00314 
L 263.824949 260.393193 
L 266.871632 257.899311 
L 269.918315 255.148554 
L 272.964998 252.122126 
L 276.011681 248.801651 
L 279.058364 245.16966 
L 282.105047 241.210165 
L 285.15173 236.909308 
L 288.198413 232.256081 
L 291.245096 227.243085 
L 294.79956 220.936147 
L 298.354023 214.139802 
L 301.908487 206.869185 
L 305.970731 198.014657 
L 310.032975 188.637569 
L 315.11078 176.308729 
L 321.711927 159.593473 
L 335.422 124.621189 
L 340.499805 112.352568 
L 345.06983 101.908203 
L 349.132074 93.194688 
L 352.686538 86.057345 
L 356.241001 79.39979 
L 359.795465 73.233893 
L 363.349928 67.560939 
L 366.396611 63.085065 
L 369.443294 58.956461 
L 372.489977 55.162599 
L 375.536661 51.688471 
L 378.583344 48.517273 
L 381.630027 45.631014 
L 384.67671 43.011054 
L 388.231173 40.265864 
L 391.785637 37.827873 
L 395.3401 35.668363 
L 398.894564 33.759953 
L 402.956808 31.853439 
L 407.019052 30.205811 
L 411.081296 28.784792 
L 415.651321 27.420993 
L 420.729126 26.154694 
L 426.314711 25.014772 
L 432.408077 24.018322 
L 439.009224 23.171443 
L 446.625932 22.427875 
L 455.2582 21.812267 
L 465.921591 21.288812 
L 479.123884 20.880905 
L 496.388421 20.585199 
L 521.777447 20.393058 
L 568.493253 20.299009 
L 578.648864 20.293161 
L 578.648864 20.293161 
" style="fill:none;stroke:#ff800e;stroke-linecap:square;stroke-width:1.5;"/>
   </g>
   <g id="line2d_18">
    <path clip-path="url(#p5778a47175)" d="M 71.376136 281.906951 
L 226.249191 281.798483 
L 240.974826 281.560855 
L 250.114875 281.196398 
L 256.716022 280.713372 
L 261.793827 280.12962 
L 265.856071 279.464819 
L 269.410534 278.684518 
L 272.457217 277.823111 
L 275.5039 276.736044 
L 278.042803 275.617478 
L 280.581706 274.264157 
L 283.120608 272.630218 
L 285.15173 271.08551 
L 287.182852 269.29644 
L 289.213974 267.228899 
L 291.245096 264.845602 
L 293.276218 262.106354 
L 295.30734 258.968563 
L 297.338462 255.388055 
L 299.369584 251.320276 
L 301.400706 246.721914 
L 303.431828 241.552986 
L 305.46295 235.779392 
L 307.494072 229.375857 
L 309.525195 222.329134 
L 312.064097 212.621001 
L 314.603 201.956908 
L 317.649683 188.03592 
L 321.204146 170.589397 
L 333.390878 109.388689 
L 336.437561 95.855886 
L 338.976464 85.565688 
L 341.515367 76.255073 
L 343.546489 69.53072 
L 345.577611 63.444639 
L 347.608733 57.977163 
L 349.639855 53.098213 
L 351.670977 48.770403 
L 353.702099 44.951795 
L 355.733221 41.598223 
L 357.764343 38.66515 
L 359.795465 36.109067 
L 361.826587 33.888499 
L 363.857709 31.96466 
L 365.888831 30.30183 
L 368.427733 28.54117 
L 370.966636 27.081505 
L 373.505538 25.874094 
L 376.552222 24.69986 
L 379.598905 23.768802 
L 383.153368 22.924969 
L 387.215612 22.205708 
L 391.785637 21.626419 
L 397.371222 21.148807 
L 404.480149 20.777249 
L 414.127979 20.513288 
L 429.361394 20.351121 
L 461.859347 20.28667 
L 578.648864 20.281284 
L 578.648864 20.281284 
" style="fill:none;stroke:#ababab;stroke-linecap:square;stroke-width:1.5;"/>
   </g>
   <g id="line2d_19">
    <path clip-path="url(#p5778a47175)" d="M 71.376136 281.906952 
L 275.5039 281.800632 
L 282.612828 281.581004 
L 287.182852 281.237712 
L 290.737316 280.736924 
L 293.276218 280.164614 
L 295.30734 279.512781 
L 297.338462 278.620173 
L 298.861804 277.741843 
L 300.385145 276.633586 
L 301.908487 275.238082 
L 303.431828 273.485413 
L 304.95517 271.291298 
L 306.478511 268.55568 
L 308.001853 265.16213 
L 309.525195 260.978735 
L 311.048536 255.861357 
L 312.571878 249.660313 
L 314.095219 242.231543 
L 315.618561 233.452896 
L 317.141902 223.245244 
L 318.665244 211.596451 
L 320.696366 193.972106 
L 323.235268 169.307172 
L 329.328634 108.21613 
L 331.359756 90.591784 
L 332.883098 78.942992 
L 334.406439 68.73534 
L 335.929781 59.956693 
L 337.453122 52.527923 
L 338.976464 46.326879 
L 340.499805 41.2095 
L 342.023147 37.026105 
L 343.546489 33.632555 
L 345.06983 30.896937 
L 346.593172 28.702822 
L 348.116513 26.950154 
L 349.639855 25.554649 
L 351.163196 24.446392 
L 352.686538 23.568062 
L 354.71766 22.675454 
L 356.748782 22.023621 
L 359.287684 21.451311 
L 362.334367 21.006166 
L 366.396611 20.663765 
L 371.982197 20.439926 
L 381.630027 20.315944 
L 409.050174 20.281742 
L 578.648864 20.281283 
L 578.648864 20.281283 
" style="fill:none;stroke:#595959;stroke-linecap:square;stroke-width:1.5;"/>
   </g>
   <g id="patch_3">
    <path d="M 46.0125 294.988235 
L 46.0125 7.2 
" style="fill:none;stroke:#000000;stroke-linecap:square;stroke-linejoin:miter;stroke-width:0.8;"/>
   </g>
   <g id="patch_4">
    <path d="M 604.0125 294.988235 
L 604.0125 7.2 
" style="fill:none;stroke:#000000;stroke-linecap:square;stroke-linejoin:miter;stroke-width:0.8;"/>
   </g>
   <g id="patch_5">
    <path d="M 46.0125 294.988235 
L 604.0125 294.988235 
" style="fill:none;stroke:#000000;stroke-linecap:square;stroke-linejoin:miter;stroke-width:0.8;"/>
   </g>
   <g id="patch_6">
    <path d="M 46.0125 7.2 
L 604.0125 7.2 
" style="fill:none;stroke:#000000;stroke-linecap:square;stroke-linejoin:miter;stroke-width:0.8;"/>
   </g>
   <g id="legend_1">
    <g id="patch_7">
     <path d="M 53.0125 73.9125 
L 115.085938 73.9125 
Q 117.085938 73.9125 117.085938 71.9125 
L 117.085938 14.2 
Q 117.085938 12.2 115.085938 12.2 
L 53.0125 12.2 
Q 51.0125 12.2 51.0125 14.2 
L 51.0125 71.9125 
Q 51.0125 73.9125 53.0125 73.9125 
z
" style="fill:#ffffff;opacity:0.8;stroke:#cccccc;stroke-linejoin:miter;"/>
    </g>
    <g id="line2d_20">
     <path d="M 55.0125 20.298437 
L 75.0125 20.298437 
" style="fill:none;stroke:#006ba4;stroke-linecap:square;stroke-width:1.5;"/>
    </g>
    <g id="line2d_21"/>
    <g id="text_17">
     <!-- k=0.5 -->
     <g transform="translate(83.0125 23.798437)scale(0.1 -0.1)">
      <defs>
       <path d="M 9.078125 75.984375 
L 18.109375 75.984375 
L 18.109375 31.109375 
L 44.921875 54.6875 
L 56.390625 54.6875 
L 27.390625 29.109375 
L 57.625 0 
L 45.90625 0 
L 18.109375 26.703125 
L 18.109375 0 
L 9.078125 0 
z
" id="DejaVuSans-107"/>
       <path d="M 10.59375 45.40625 
L 73.1875 45.40625 
L 73.1875 37.203125 
L 10.59375 37.203125 
z
M 10.59375 25.484375 
L 73.1875 25.484375 
L 73.1875 17.1875 
L 10.59375 17.1875 
z
" id="DejaVuSans-61"/>
      </defs>
      <use xlink:href="#DejaVuSans-107"/>
      <use x="57.910156" xlink:href="#DejaVuSans-61"/>
      <use x="141.699219" xlink:href="#DejaVuSans-48"/>
      <use x="205.322266" xlink:href="#DejaVuSans-46"/>
      <use x="237.109375" xlink:href="#DejaVuSans-53"/>
     </g>
    </g>
    <g id="line2d_22">
     <path d="M 55.0125 34.976562 
L 75.0125 34.976562 
" style="fill:none;stroke:#ff800e;stroke-linecap:square;stroke-width:1.5;"/>
    </g>
    <g id="line2d_23"/>
    <g id="text_18">
     <!-- k=1.0 -->
     <g transform="translate(83.0125 38.476562)scale(0.1 -0.1)">
      <use xlink:href="#DejaVuSans-107"/>
      <use x="57.910156" xlink:href="#DejaVuSans-61"/>
      <use x="141.699219" xlink:href="#DejaVuSans-49"/>
      <use x="205.322266" xlink:href="#DejaVuSans-46"/>
      <use x="237.109375" xlink:href="#DejaVuSans-48"/>
     </g>
    </g>
    <g id="line2d_24">
     <path d="M 55.0125 49.654687 
L 75.0125 49.654687 
" style="fill:none;stroke:#ababab;stroke-linecap:square;stroke-width:1.5;"/>
    </g>
    <g id="line2d_25"/>
    <g id="text_19">
     <!-- k=2.0 -->
     <g transform="translate(83.0125 53.154687)scale(0.1 -0.1)">
      <use xlink:href="#DejaVuSans-107"/>
      <use x="57.910156" xlink:href="#DejaVuSans-61"/>
      <use x="141.699219" xlink:href="#DejaVuSans-50"/>
      <use x="205.322266" xlink:href="#DejaVuSans-46"/>
      <use x="237.109375" xlink:href="#DejaVuSans-48"/>
     </g>
    </g>
    <g id="line2d_26">
     <path d="M 55.0125 64.332812 
L 75.0125 64.332812 
" style="fill:none;stroke:#595959;stroke-linecap:square;stroke-width:1.5;"/>
    </g>
    <g id="line2d_27"/>
    <g id="text_20">
     <!-- k=4.0 -->
     <g transform="translate(83.0125 67.832812)scale(0.1 -0.1)">
      <use xlink:href="#DejaVuSans-107"/>
      <use x="57.910156" xlink:href="#DejaVuSans-61"/>
      <use x="141.699219" xlink:href="#DejaVuSans-52"/>
      <use x="205.322266" xlink:href="#DejaVuSans-46"/>
      <use x="237.109375" xlink:href="#DejaVuSans-48"/>
     </g>
    </g>
   </g>
  </g>
  <g id="axes_2">
   <g id="patch_8">
    <path d="M 46.0125 640.334118 
L 604.0125 640.334118 
L 604.0125 352.545882 
L 46.0125 352.545882 
z
" style="fill:#ffffff;"/>
   </g>
   <g id="matplotlib.axis_3">
    <g id="xtick_10">
     <g id="line2d_28">
      <g>
       <use style="stroke:#000000;stroke-width:0.8;" x="71.376136" xlink:href="#m35f0528807" y="640.334118"/>
      </g>
     </g>
     <g id="text_21">
      <!-- −5.0 -->
      <g transform="translate(59.23473 654.932555)scale(0.1 -0.1)">
       <use xlink:href="#DejaVuSans-8722"/>
       <use x="83.789062" xlink:href="#DejaVuSans-53"/>
       <use x="147.412109" xlink:href="#DejaVuSans-46"/>
       <use x="179.199219" xlink:href="#DejaVuSans-48"/>
      </g>
     </g>
    </g>
    <g id="xtick_11">
     <g id="line2d_29">
      <g>
       <use style="stroke:#000000;stroke-width:0.8;" x="134.785227" xlink:href="#m35f0528807" y="640.334118"/>
      </g>
     </g>
     <g id="text_22">
      <!-- −2.5 -->
      <g transform="translate(122.643821 654.932555)scale(0.1 -0.1)">
       <use xlink:href="#DejaVuSans-8722"/>
       <use x="83.789062" xlink:href="#DejaVuSans-50"/>
       <use x="147.412109" xlink:href="#DejaVuSans-46"/>
       <use x="179.199219" xlink:href="#DejaVuSans-53"/>
      </g>
     </g>
    </g>
    <g id="xtick_12">
     <g id="line2d_30">
      <g>
       <use style="stroke:#000000;stroke-width:0.8;" x="198.194318" xlink:href="#m35f0528807" y="640.334118"/>
      </g>
     </g>
     <g id="text_23">
      <!-- 0.0 -->
      <g transform="translate(190.242756 654.932555)scale(0.1 -0.1)">
       <use xlink:href="#DejaVuSans-48"/>
       <use x="63.623047" xlink:href="#DejaVuSans-46"/>
       <use x="95.410156" xlink:href="#DejaVuSans-48"/>
      </g>
     </g>
    </g>
    <g id="xtick_13">
     <g id="line2d_31">
      <g>
       <use style="stroke:#000000;stroke-width:0.8;" x="261.603409" xlink:href="#m35f0528807" y="640.334118"/>
      </g>
     </g>
     <g id="text_24">
      <!-- 2.5 -->
      <g transform="translate(253.651847 654.932555)scale(0.1 -0.1)">
       <use xlink:href="#DejaVuSans-50"/>
       <use x="63.623047" xlink:href="#DejaVuSans-46"/>
       <use x="95.410156" xlink:href="#DejaVuSans-53"/>
      </g>
     </g>
    </g>
    <g id="xtick_14">
     <g id="line2d_32">
      <g>
       <use style="stroke:#000000;stroke-width:0.8;" x="325.0125" xlink:href="#m35f0528807" y="640.334118"/>
      </g>
     </g>
     <g id="text_25">
      <!-- 5.0 -->
      <g transform="translate(317.060937 654.932555)scale(0.1 -0.1)">
       <use xlink:href="#DejaVuSans-53"/>
       <use x="63.623047" xlink:href="#DejaVuSans-46"/>
       <use x="95.410156" xlink:href="#DejaVuSans-48"/>
      </g>
     </g>
    </g>
    <g id="xtick_15">
     <g id="line2d_33">
      <g>
       <use style="stroke:#000000;stroke-width:0.8;" x="388.421591" xlink:href="#m35f0528807" y="640.334118"/>
      </g>
     </g>
     <g id="text_26">
      <!-- 7.5 -->
      <g transform="translate(380.470028 654.932555)scale(0.1 -0.1)">
       <use xlink:href="#DejaVuSans-55"/>
       <use x="63.623047" xlink:href="#DejaVuSans-46"/>
       <use x="95.410156" xlink:href="#DejaVuSans-53"/>
      </g>
     </g>
    </g>
    <g id="xtick_16">
     <g id="line2d_34">
      <g>
       <use style="stroke:#000000;stroke-width:0.8;" x="451.830682" xlink:href="#m35f0528807" y="640.334118"/>
      </g>
     </g>
     <g id="text_27">
      <!-- 10.0 -->
      <g transform="translate(440.697869 654.932555)scale(0.1 -0.1)">
       <use xlink:href="#DejaVuSans-49"/>
       <use x="63.623047" xlink:href="#DejaVuSans-48"/>
       <use x="127.246094" xlink:href="#DejaVuSans-46"/>
       <use x="159.033203" xlink:href="#DejaVuSans-48"/>
      </g>
     </g>
    </g>
    <g id="xtick_17">
     <g id="line2d_35">
      <g>
       <use style="stroke:#000000;stroke-width:0.8;" x="515.239773" xlink:href="#m35f0528807" y="640.334118"/>
      </g>
     </g>
     <g id="text_28">
      <!-- 12.5 -->
      <g transform="translate(504.10696 654.932555)scale(0.1 -0.1)">
       <use xlink:href="#DejaVuSans-49"/>
       <use x="63.623047" xlink:href="#DejaVuSans-50"/>
       <use x="127.246094" xlink:href="#DejaVuSans-46"/>
       <use x="159.033203" xlink:href="#DejaVuSans-53"/>
      </g>
     </g>
    </g>
    <g id="xtick_18">
     <g id="line2d_36">
      <g>
       <use style="stroke:#000000;stroke-width:0.8;" x="578.648864" xlink:href="#m35f0528807" y="640.334118"/>
      </g>
     </g>
     <g id="text_29">
      <!-- 15.0 -->
      <g transform="translate(567.516051 654.932555)scale(0.1 -0.1)">
       <use xlink:href="#DejaVuSans-49"/>
       <use x="63.623047" xlink:href="#DejaVuSans-53"/>
       <use x="127.246094" xlink:href="#DejaVuSans-46"/>
       <use x="159.033203" xlink:href="#DejaVuSans-48"/>
      </g>
     </g>
    </g>
    <g id="text_30">
     <!-- t -->
     <g transform="translate(323.052344 668.61068)scale(0.1 -0.1)">
      <use xlink:href="#DejaVuSans-116"/>
     </g>
    </g>
   </g>
   <g id="matplotlib.axis_4">
    <g id="ytick_7">
     <g id="line2d_37">
      <g>
       <use style="stroke:#000000;stroke-width:0.8;" x="46.0125" xlink:href="#m38f5bc59ef" y="627.252834"/>
      </g>
     </g>
     <g id="text_31">
      <!-- 0 -->
      <g transform="translate(32.65 631.052053)scale(0.1 -0.1)">
       <use xlink:href="#DejaVuSans-48"/>
      </g>
     </g>
    </g>
    <g id="ytick_8">
     <g id="line2d_38">
      <g>
       <use style="stroke:#000000;stroke-width:0.8;" x="46.0125" xlink:href="#m38f5bc59ef" y="574.927701"/>
      </g>
     </g>
     <g id="text_32">
      <!-- 2000 -->
      <g transform="translate(13.5625 578.726919)scale(0.1 -0.1)">
       <use xlink:href="#DejaVuSans-50"/>
       <use x="63.623047" xlink:href="#DejaVuSans-48"/>
       <use x="127.246094" xlink:href="#DejaVuSans-48"/>
       <use x="190.869141" xlink:href="#DejaVuSans-48"/>
      </g>
     </g>
    </g>
    <g id="ytick_9">
     <g id="line2d_39">
      <g>
       <use style="stroke:#000000;stroke-width:0.8;" x="46.0125" xlink:href="#m38f5bc59ef" y="522.602567"/>
      </g>
     </g>
     <g id="text_33">
      <!-- 4000 -->
      <g transform="translate(13.5625 526.401786)scale(0.1 -0.1)">
       <use xlink:href="#DejaVuSans-52"/>
       <use x="63.623047" xlink:href="#DejaVuSans-48"/>
       <use x="127.246094" xlink:href="#DejaVuSans-48"/>
       <use x="190.869141" xlink:href="#DejaVuSans-48"/>
      </g>
     </g>
    </g>
    <g id="ytick_10">
     <g id="line2d_40">
      <g>
       <use style="stroke:#000000;stroke-width:0.8;" x="46.0125" xlink:href="#m38f5bc59ef" y="470.277433"/>
      </g>
     </g>
     <g id="text_34">
      <!-- 6000 -->
      <g transform="translate(13.5625 474.076652)scale(0.1 -0.1)">
       <use xlink:href="#DejaVuSans-54"/>
       <use x="63.623047" xlink:href="#DejaVuSans-48"/>
       <use x="127.246094" xlink:href="#DejaVuSans-48"/>
       <use x="190.869141" xlink:href="#DejaVuSans-48"/>
      </g>
     </g>
    </g>
    <g id="ytick_11">
     <g id="line2d_41">
      <g>
       <use style="stroke:#000000;stroke-width:0.8;" x="46.0125" xlink:href="#m38f5bc59ef" y="417.952299"/>
      </g>
     </g>
     <g id="text_35">
      <!-- 8000 -->
      <g transform="translate(13.5625 421.751518)scale(0.1 -0.1)">
       <use xlink:href="#DejaVuSans-56"/>
       <use x="63.623047" xlink:href="#DejaVuSans-48"/>
       <use x="127.246094" xlink:href="#DejaVuSans-48"/>
       <use x="190.869141" xlink:href="#DejaVuSans-48"/>
      </g>
     </g>
    </g>
    <g id="ytick_12">
     <g id="line2d_42">
      <g>
       <use style="stroke:#000000;stroke-width:0.8;" x="46.0125" xlink:href="#m38f5bc59ef" y="365.627166"/>
      </g>
     </g>
     <g id="text_36">
      <!-- 10000 -->
      <g transform="translate(7.2 369.426385)scale(0.1 -0.1)">
       <use xlink:href="#DejaVuSans-49"/>
       <use x="63.623047" xlink:href="#DejaVuSans-48"/>
       <use x="127.246094" xlink:href="#DejaVuSans-48"/>
       <use x="190.869141" xlink:href="#DejaVuSans-48"/>
       <use x="254.492188" xlink:href="#DejaVuSans-48"/>
      </g>
     </g>
    </g>
   </g>
   <g id="line2d_43">
    <path clip-path="url(#p2734994011)" d="M 71.376136 627.252617 
L 150.589896 627.140611 
L 164.80775 626.908807 
L 173.947799 626.546524 
L 180.548946 626.06637 
L 185.626751 625.486073 
L 189.688995 624.825189 
L 193.243458 624.04946 
L 196.290141 623.193068 
L 199.336824 622.112281 
L 201.875727 621.000122 
L 204.414629 619.654475 
L 206.953532 618.029692 
L 208.984654 616.493526 
L 211.015776 614.714215 
L 213.046898 612.65777 
L 215.07802 610.287023 
L 217.109142 607.561879 
L 219.140264 604.439823 
L 221.171386 600.876723 
L 223.202508 596.828013 
L 225.23363 592.250297 
L 227.264752 587.103426 
L 229.295874 581.353028 
L 231.326996 574.97344 
L 233.358118 567.950904 
L 235.897021 558.27238 
L 238.435923 547.635843 
L 241.482606 533.742998 
L 245.03707 516.319212 
L 257.223802 455.08781 
L 260.270485 441.524962 
L 262.809388 431.20627 
L 265.34829 421.865664 
L 267.379412 415.117163 
L 269.410534 409.007427 
L 271.441656 403.51724 
L 273.472778 398.616859 
L 275.5039 394.269117 
L 277.535023 390.432203 
L 279.566145 387.061999 
L 281.597267 384.113952 
L 283.628389 381.544496 
L 285.659511 379.312065 
L 287.690633 377.377762 
L 289.721755 375.705752 
L 292.260657 373.93523 
L 294.79956 372.467281 
L 297.338462 371.252943 
L 300.385145 370.071908 
L 303.431828 369.135412 
L 306.986292 368.286615 
L 311.048536 367.563097 
L 315.618561 366.980363 
L 321.204146 366.499898 
L 328.313073 366.126113 
L 337.960903 365.860566 
L 352.686538 365.700294 
L 384.168929 365.633276 
L 578.648864 365.627166 
L 578.648864 365.627166 
" style="fill:none;stroke:#006ba4;stroke-linecap:square;stroke-width:1.5;"/>
   </g>
   <g id="line2d_44">
    <path clip-path="url(#p2734994011)" d="M 71.376136 627.25283 
L 200.860166 627.144582 
L 215.585801 626.907428 
L 224.72585 626.543698 
L 231.326996 626.061631 
L 236.404801 625.479033 
L 240.467045 624.81554 
L 244.021509 624.036766 
L 247.068192 623.177034 
L 250.114875 622.092064 
L 252.653778 620.975638 
L 255.19268 619.624879 
L 257.731583 617.993998 
L 259.762705 616.452142 
L 261.793827 614.66633 
L 263.824949 612.602493 
L 265.856071 610.223386 
L 267.887193 607.488846 
L 269.918315 604.356307 
L 271.949437 600.781609 
L 273.980559 596.720193 
L 276.011681 592.128719 
L 278.042803 586.967149 
L 280.073925 581.201291 
L 282.105047 574.80574 
L 284.136169 567.767079 
L 286.675072 558.068812 
L 289.213974 547.413894 
L 292.260657 533.502269 
L 295.815121 516.063295 
L 308.001853 454.852243 
L 311.048536 441.309409 
L 313.587439 431.009705 
L 316.126341 421.68909 
L 318.157463 414.956689 
L 320.188585 408.862727 
L 322.219707 403.387685 
L 324.250829 398.501597 
L 326.281951 394.167149 
L 328.313073 390.342446 
L 330.344195 386.983338 
L 332.375317 384.04528 
L 334.406439 381.484746 
L 336.437561 379.26023 
L 338.468683 377.332908 
L 340.499805 375.667023 
L 343.038708 373.903081 
L 345.577611 372.44066 
L 348.116513 371.230944 
L 351.163196 370.054447 
L 354.209879 369.12158 
L 357.764343 368.276095 
L 361.826587 367.555418 
L 366.396611 366.974983 
L 371.982197 366.496422 
L 379.091124 366.124123 
L 388.738954 365.859635 
L 403.972369 365.697143 
L 435.962541 365.632783 
L 578.648864 365.627166 
L 578.648864 365.627166 
" style="fill:none;stroke:#ff800e;stroke-linecap:square;stroke-width:1.5;"/>
   </g>
   <g id="line2d_45">
    <path clip-path="url(#p2734994011)" d="M 71.376136 627.252834 
L 251.638217 627.144148 
L 266.363851 626.906044 
L 275.5039 626.54086 
L 282.105047 626.056874 
L 287.182852 625.471965 
L 291.245096 624.805853 
L 294.79956 624.024022 
L 297.846243 623.160937 
L 300.892926 622.071769 
L 303.431828 620.95106 
L 305.970731 619.595172 
L 308.509633 617.958171 
L 310.540756 616.410605 
L 312.571878 614.618271 
L 314.603 612.547019 
L 316.634122 610.159527 
L 318.665244 607.415565 
L 320.696366 604.272514 
L 322.727488 600.68619 
L 324.75861 596.612042 
L 326.789732 592.006784 
L 328.820854 586.830494 
L 330.851976 581.04916 
L 332.883098 574.637638 
L 334.91422 567.582852 
L 337.453122 557.86486 
L 339.992025 547.191599 
L 343.038708 533.261268 
L 346.593172 515.807224 
L 358.779904 454.616975 
L 361.826587 441.094219 
L 364.365489 430.813534 
L 366.904392 421.512921 
L 368.935514 414.796615 
L 370.966636 408.718414 
L 372.997758 403.258497 
L 375.02888 398.386679 
L 377.060002 394.0655 
L 379.091124 390.25298 
L 381.122246 386.904939 
L 383.153368 383.976843 
L 385.18449 381.425205 
L 387.215612 379.20858 
L 389.246734 377.288217 
L 391.277856 375.628438 
L 393.816759 373.871053 
L 396.355661 372.41414 
L 398.894564 371.209029 
L 401.941247 370.037054 
L 404.98793 369.107803 
L 408.542394 368.265617 
L 412.604638 367.54777 
L 417.174662 366.969625 
L 422.760248 366.49296 
L 429.869175 366.122141 
L 439.517005 365.858706 
L 454.75042 365.696864 
L 487.248372 365.632541 
L 578.648864 365.62717 
L 578.648864 365.62717 
" style="fill:none;stroke:#ababab;stroke-linecap:square;stroke-width:1.5;"/>
   </g>
   <g id="line2d_46">
    <path clip-path="url(#p2734994011)" d="M 71.376136 627.252834 
L 302.416267 627.143712 
L 317.141902 626.904655 
L 326.281951 626.538012 
L 332.883098 626.052098 
L 337.960903 625.464869 
L 342.023147 624.796128 
L 345.577611 624.011229 
L 348.624294 623.144778 
L 351.670977 622.051395 
L 354.209879 620.926388 
L 356.748782 619.565352 
L 359.287684 617.92221 
L 361.318806 616.368915 
L 363.349928 614.570038 
L 365.38105 612.491348 
L 367.412172 610.095446 
L 369.443294 607.342034 
L 371.474416 604.188444 
L 373.505538 600.590466 
L 375.536661 596.503558 
L 377.567783 591.884493 
L 379.598905 586.69346 
L 381.630027 580.896634 
L 383.661149 574.469133 
L 385.692271 567.398224 
L 388.231173 557.660524 
L 390.770076 546.968959 
L 393.816759 533.019994 
L 397.371222 515.551002 
L 409.557955 454.382008 
L 412.604638 440.879393 
L 415.14354 430.617757 
L 417.682443 421.337154 
L 419.713565 414.63694 
L 421.744687 408.574487 
L 423.775809 403.129678 
L 425.806931 398.272107 
L 427.838053 393.964169 
L 429.869175 390.163804 
L 431.900297 386.826803 
L 433.931419 383.908641 
L 435.962541 381.365874 
L 437.993663 379.157115 
L 440.024785 377.243688 
L 442.055907 375.589994 
L 444.59481 373.839144 
L 447.133712 372.38772 
L 449.672615 371.187198 
L 452.719298 370.019728 
L 455.765981 369.094078 
L 459.320444 368.25518 
L 463.382688 367.540151 
L 467.952713 366.964288 
L 473.538299 366.489512 
L 480.647226 366.120167 
L 490.295055 365.857782 
L 505.528471 365.696585 
L 538.026423 365.63252 
L 578.648864 365.627383 
L 578.648864 365.627383 
" style="fill:none;stroke:#595959;stroke-linecap:square;stroke-width:1.5;"/>
   </g>
   <g id="patch_9">
    <path d="M 46.0125 640.334118 
L 46.0125 352.545882 
" style="fill:none;stroke:#000000;stroke-linecap:square;stroke-linejoin:miter;stroke-width:0.8;"/>
   </g>
   <g id="patch_10">
    <path d="M 604.0125 640.334118 
L 604.0125 352.545882 
" style="fill:none;stroke:#000000;stroke-linecap:square;stroke-linejoin:miter;stroke-width:0.8;"/>
   </g>
   <g id="patch_11">
    <path d="M 46.0125 640.334118 
L 604.0125 640.334118 
" style="fill:none;stroke:#000000;stroke-linecap:square;stroke-linejoin:miter;stroke-width:0.8;"/>
   </g>
   <g id="patch_12">
    <path d="M 46.0125 352.545882 
L 604.0125 352.545882 
" style="fill:none;stroke:#000000;stroke-linecap:square;stroke-linejoin:miter;stroke-width:0.8;"/>
   </g>
   <g id="legend_2">
    <g id="patch_13">
     <path d="M 53.0125 419.258382 
L 110.0375 419.258382 
Q 112.0375 419.258382 112.0375 417.258382 
L 112.0375 359.545882 
Q 112.0375 357.545882 110.0375 357.545882 
L 53.0125 357.545882 
Q 51.0125 357.545882 51.0125 359.545882 
L 51.0125 417.258382 
Q 51.0125 419.258382 53.0125 419.258382 
z
" style="fill:#ffffff;opacity:0.8;stroke:#cccccc;stroke-linejoin:miter;"/>
    </g>
    <g id="line2d_47">
     <path d="M 55.0125 365.64432 
L 75.0125 365.64432 
" style="fill:none;stroke:#006ba4;stroke-linecap:square;stroke-width:1.5;"/>
    </g>
    <g id="line2d_48"/>
    <g id="text_37">
     <!-- t0=2 -->
     <g transform="translate(83.0125 369.14432)scale(0.1 -0.1)">
      <use xlink:href="#DejaVuSans-116"/>
      <use x="39.208984" xlink:href="#DejaVuSans-48"/>
      <use x="102.832031" xlink:href="#DejaVuSans-61"/>
      <use x="186.621094" xlink:href="#DejaVuSans-50"/>
     </g>
    </g>
    <g id="line2d_49">
     <path d="M 55.0125 380.322445 
L 75.0125 380.322445 
" style="fill:none;stroke:#ff800e;stroke-linecap:square;stroke-width:1.5;"/>
    </g>
    <g id="line2d_50"/>
    <g id="text_38">
     <!-- t0=4 -->
     <g transform="translate(83.0125 383.822445)scale(0.1 -0.1)">
      <use xlink:href="#DejaVuSans-116"/>
      <use x="39.208984" xlink:href="#DejaVuSans-48"/>
      <use x="102.832031" xlink:href="#DejaVuSans-61"/>
      <use x="186.621094" xlink:href="#DejaVuSans-52"/>
     </g>
    </g>
    <g id="line2d_51">
     <path d="M 55.0125 395.00057 
L 75.0125 395.00057 
" style="fill:none;stroke:#ababab;stroke-linecap:square;stroke-width:1.5;"/>
    </g>
    <g id="line2d_52"/>
    <g id="text_39">
     <!-- t0=6 -->
     <g transform="translate(83.0125 398.50057)scale(0.1 -0.1)">
      <use xlink:href="#DejaVuSans-116"/>
      <use x="39.208984" xlink:href="#DejaVuSans-48"/>
      <use x="102.832031" xlink:href="#DejaVuSans-61"/>
      <use x="186.621094" xlink:href="#DejaVuSans-54"/>
     </g>
    </g>
    <g id="line2d_53">
     <path d="M 55.0125 409.678695 
L 75.0125 409.678695 
" style="fill:none;stroke:#595959;stroke-linecap:square;stroke-width:1.5;"/>
    </g>
    <g id="line2d_54"/>
    <g id="text_40">
     <!-- t0=8 -->
     <g transform="translate(83.0125 413.178695)scale(0.1 -0.1)">
      <use xlink:href="#DejaVuSans-116"/>
      <use x="39.208984" xlink:href="#DejaVuSans-48"/>
      <use x="102.832031" xlink:href="#DejaVuSans-61"/>
      <use x="186.621094" xlink:href="#DejaVuSans-56"/>
     </g>
    </g>
   </g>
  </g>
  <g id="axes_3">
   <g id="patch_14">
    <path d="M 46.0125 985.68 
L 604.0125 985.68 
L 604.0125 697.891765 
L 46.0125 697.891765 
z
" style="fill:#ffffff;"/>
   </g>
   <g id="matplotlib.axis_5">
    <g id="xtick_19">
     <g id="line2d_55">
      <g>
       <use style="stroke:#000000;stroke-width:0.8;" x="71.376136" xlink:href="#m35f0528807" y="985.68"/>
      </g>
     </g>
     <g id="text_41">
      <!-- −5.0 -->
      <g transform="translate(59.23473 1000.278437)scale(0.1 -0.1)">
       <use xlink:href="#DejaVuSans-8722"/>
       <use x="83.789062" xlink:href="#DejaVuSans-53"/>
       <use x="147.412109" xlink:href="#DejaVuSans-46"/>
       <use x="179.199219" xlink:href="#DejaVuSans-48"/>
      </g>
     </g>
    </g>
    <g id="xtick_20">
     <g id="line2d_56">
      <g>
       <use style="stroke:#000000;stroke-width:0.8;" x="134.785227" xlink:href="#m35f0528807" y="985.68"/>
      </g>
     </g>
     <g id="text_42">
      <!-- −2.5 -->
      <g transform="translate(122.643821 1000.278437)scale(0.1 -0.1)">
       <use xlink:href="#DejaVuSans-8722"/>
       <use x="83.789062" xlink:href="#DejaVuSans-50"/>
       <use x="147.412109" xlink:href="#DejaVuSans-46"/>
       <use x="179.199219" xlink:href="#DejaVuSans-53"/>
      </g>
     </g>
    </g>
    <g id="xtick_21">
     <g id="line2d_57">
      <g>
       <use style="stroke:#000000;stroke-width:0.8;" x="198.194318" xlink:href="#m35f0528807" y="985.68"/>
      </g>
     </g>
     <g id="text_43">
      <!-- 0.0 -->
      <g transform="translate(190.242756 1000.278437)scale(0.1 -0.1)">
       <use xlink:href="#DejaVuSans-48"/>
       <use x="63.623047" xlink:href="#DejaVuSans-46"/>
       <use x="95.410156" xlink:href="#DejaVuSans-48"/>
      </g>
     </g>
    </g>
    <g id="xtick_22">
     <g id="line2d_58">
      <g>
       <use style="stroke:#000000;stroke-width:0.8;" x="261.603409" xlink:href="#m35f0528807" y="985.68"/>
      </g>
     </g>
     <g id="text_44">
      <!-- 2.5 -->
      <g transform="translate(253.651847 1000.278437)scale(0.1 -0.1)">
       <use xlink:href="#DejaVuSans-50"/>
       <use x="63.623047" xlink:href="#DejaVuSans-46"/>
       <use x="95.410156" xlink:href="#DejaVuSans-53"/>
      </g>
     </g>
    </g>
    <g id="xtick_23">
     <g id="line2d_59">
      <g>
       <use style="stroke:#000000;stroke-width:0.8;" x="325.0125" xlink:href="#m35f0528807" y="985.68"/>
      </g>
     </g>
     <g id="text_45">
      <!-- 5.0 -->
      <g transform="translate(317.060937 1000.278437)scale(0.1 -0.1)">
       <use xlink:href="#DejaVuSans-53"/>
       <use x="63.623047" xlink:href="#DejaVuSans-46"/>
       <use x="95.410156" xlink:href="#DejaVuSans-48"/>
      </g>
     </g>
    </g>
    <g id="xtick_24">
     <g id="line2d_60">
      <g>
       <use style="stroke:#000000;stroke-width:0.8;" x="388.421591" xlink:href="#m35f0528807" y="985.68"/>
      </g>
     </g>
     <g id="text_46">
      <!-- 7.5 -->
      <g transform="translate(380.470028 1000.278437)scale(0.1 -0.1)">
       <use xlink:href="#DejaVuSans-55"/>
       <use x="63.623047" xlink:href="#DejaVuSans-46"/>
       <use x="95.410156" xlink:href="#DejaVuSans-53"/>
      </g>
     </g>
    </g>
    <g id="xtick_25">
     <g id="line2d_61">
      <g>
       <use style="stroke:#000000;stroke-width:0.8;" x="451.830682" xlink:href="#m35f0528807" y="985.68"/>
      </g>
     </g>
     <g id="text_47">
      <!-- 10.0 -->
      <g transform="translate(440.697869 1000.278437)scale(0.1 -0.1)">
       <use xlink:href="#DejaVuSans-49"/>
       <use x="63.623047" xlink:href="#DejaVuSans-48"/>
       <use x="127.246094" xlink:href="#DejaVuSans-46"/>
       <use x="159.033203" xlink:href="#DejaVuSans-48"/>
      </g>
     </g>
    </g>
    <g id="xtick_26">
     <g id="line2d_62">
      <g>
       <use style="stroke:#000000;stroke-width:0.8;" x="515.239773" xlink:href="#m35f0528807" y="985.68"/>
      </g>
     </g>
     <g id="text_48">
      <!-- 12.5 -->
      <g transform="translate(504.10696 1000.278437)scale(0.1 -0.1)">
       <use xlink:href="#DejaVuSans-49"/>
       <use x="63.623047" xlink:href="#DejaVuSans-50"/>
       <use x="127.246094" xlink:href="#DejaVuSans-46"/>
       <use x="159.033203" xlink:href="#DejaVuSans-53"/>
      </g>
     </g>
    </g>
    <g id="xtick_27">
     <g id="line2d_63">
      <g>
       <use style="stroke:#000000;stroke-width:0.8;" x="578.648864" xlink:href="#m35f0528807" y="985.68"/>
      </g>
     </g>
     <g id="text_49">
      <!-- 15.0 -->
      <g transform="translate(567.516051 1000.278437)scale(0.1 -0.1)">
       <use xlink:href="#DejaVuSans-49"/>
       <use x="63.623047" xlink:href="#DejaVuSans-53"/>
       <use x="127.246094" xlink:href="#DejaVuSans-46"/>
       <use x="159.033203" xlink:href="#DejaVuSans-48"/>
      </g>
     </g>
    </g>
    <g id="text_50">
     <!-- t -->
     <g transform="translate(323.052344 1013.956562)scale(0.1 -0.1)">
      <use xlink:href="#DejaVuSans-116"/>
     </g>
    </g>
   </g>
   <g id="matplotlib.axis_6">
    <g id="ytick_13">
     <g id="line2d_64">
      <g>
       <use style="stroke:#000000;stroke-width:0.8;" x="46.0125" xlink:href="#m38f5bc59ef" y="972.598717"/>
      </g>
     </g>
     <g id="text_51">
      <!-- 0 -->
      <g transform="translate(32.65 976.397936)scale(0.1 -0.1)">
       <use xlink:href="#DejaVuSans-48"/>
      </g>
     </g>
    </g>
    <g id="ytick_14">
     <g id="line2d_65">
      <g>
       <use style="stroke:#000000;stroke-width:0.8;" x="46.0125" xlink:href="#m38f5bc59ef" y="935.223621"/>
      </g>
     </g>
     <g id="text_52">
      <!-- 2000 -->
      <g transform="translate(13.5625 939.02284)scale(0.1 -0.1)">
       <use xlink:href="#DejaVuSans-50"/>
       <use x="63.623047" xlink:href="#DejaVuSans-48"/>
       <use x="127.246094" xlink:href="#DejaVuSans-48"/>
       <use x="190.869141" xlink:href="#DejaVuSans-48"/>
      </g>
     </g>
    </g>
    <g id="ytick_15">
     <g id="line2d_66">
      <g>
       <use style="stroke:#000000;stroke-width:0.8;" x="46.0125" xlink:href="#m38f5bc59ef" y="897.848526"/>
      </g>
     </g>
     <g id="text_53">
      <!-- 4000 -->
      <g transform="translate(13.5625 901.647744)scale(0.1 -0.1)">
       <use xlink:href="#DejaVuSans-52"/>
       <use x="63.623047" xlink:href="#DejaVuSans-48"/>
       <use x="127.246094" xlink:href="#DejaVuSans-48"/>
       <use x="190.869141" xlink:href="#DejaVuSans-48"/>
      </g>
     </g>
    </g>
    <g id="ytick_16">
     <g id="line2d_67">
      <g>
       <use style="stroke:#000000;stroke-width:0.8;" x="46.0125" xlink:href="#m38f5bc59ef" y="860.47343"/>
      </g>
     </g>
     <g id="text_54">
      <!-- 6000 -->
      <g transform="translate(13.5625 864.272649)scale(0.1 -0.1)">
       <use xlink:href="#DejaVuSans-54"/>
       <use x="63.623047" xlink:href="#DejaVuSans-48"/>
       <use x="127.246094" xlink:href="#DejaVuSans-48"/>
       <use x="190.869141" xlink:href="#DejaVuSans-48"/>
      </g>
     </g>
    </g>
    <g id="ytick_17">
     <g id="line2d_68">
      <g>
       <use style="stroke:#000000;stroke-width:0.8;" x="46.0125" xlink:href="#m38f5bc59ef" y="823.098334"/>
      </g>
     </g>
     <g id="text_55">
      <!-- 8000 -->
      <g transform="translate(13.5625 826.897553)scale(0.1 -0.1)">
       <use xlink:href="#DejaVuSans-56"/>
       <use x="63.623047" xlink:href="#DejaVuSans-48"/>
       <use x="127.246094" xlink:href="#DejaVuSans-48"/>
       <use x="190.869141" xlink:href="#DejaVuSans-48"/>
      </g>
     </g>
    </g>
    <g id="ytick_18">
     <g id="line2d_69">
      <g>
       <use style="stroke:#000000;stroke-width:0.8;" x="46.0125" xlink:href="#m38f5bc59ef" y="785.723239"/>
      </g>
     </g>
     <g id="text_56">
      <!-- 10000 -->
      <g transform="translate(7.2 789.522458)scale(0.1 -0.1)">
       <use xlink:href="#DejaVuSans-49"/>
       <use x="63.623047" xlink:href="#DejaVuSans-48"/>
       <use x="127.246094" xlink:href="#DejaVuSans-48"/>
       <use x="190.869141" xlink:href="#DejaVuSans-48"/>
       <use x="254.492188" xlink:href="#DejaVuSans-48"/>
      </g>
     </g>
    </g>
    <g id="ytick_19">
     <g id="line2d_70">
      <g>
       <use style="stroke:#000000;stroke-width:0.8;" x="46.0125" xlink:href="#m38f5bc59ef" y="748.348143"/>
      </g>
     </g>
     <g id="text_57">
      <!-- 12000 -->
      <g transform="translate(7.2 752.147362)scale(0.1 -0.1)">
       <use xlink:href="#DejaVuSans-49"/>
       <use x="63.623047" xlink:href="#DejaVuSans-50"/>
       <use x="127.246094" xlink:href="#DejaVuSans-48"/>
       <use x="190.869141" xlink:href="#DejaVuSans-48"/>
       <use x="254.492188" xlink:href="#DejaVuSans-48"/>
      </g>
     </g>
    </g>
    <g id="ytick_20">
     <g id="line2d_71">
      <g>
       <use style="stroke:#000000;stroke-width:0.8;" x="46.0125" xlink:href="#m38f5bc59ef" y="710.973048"/>
      </g>
     </g>
     <g id="text_58">
      <!-- 14000 -->
      <g transform="translate(7.2 714.772266)scale(0.1 -0.1)">
       <use xlink:href="#DejaVuSans-49"/>
       <use x="63.623047" xlink:href="#DejaVuSans-52"/>
       <use x="127.246094" xlink:href="#DejaVuSans-48"/>
       <use x="190.869141" xlink:href="#DejaVuSans-48"/>
       <use x="254.492188" xlink:href="#DejaVuSans-48"/>
      </g>
     </g>
    </g>
   </g>
   <g id="line2d_72">
    <path clip-path="url(#p90778db78c)" d="M 71.376136 972.598717 
L 233.358118 972.490179 
L 248.083753 972.252637 
L 257.223802 971.888941 
L 263.824949 971.408092 
L 268.902754 970.828743 
L 273.472778 970.073816 
L 277.027242 969.275168 
L 280.073925 968.398002 
L 283.120608 967.297726 
L 285.659511 966.173275 
L 288.198413 964.823165 
L 290.737316 963.20799 
L 293.276218 961.28409 
L 295.30734 959.491066 
L 297.338462 957.445061 
L 299.369584 955.120617 
L 301.400706 952.492981 
L 303.431828 949.539308 
L 305.46295 946.240111 
L 307.494072 942.580948 
L 310.032975 937.490065 
L 312.571878 931.830384 
L 315.11078 925.632927 
L 318.157463 917.57333 
L 321.711927 907.521241 
L 332.883098 875.369695 
L 335.929781 867.523796 
L 338.468683 861.53589 
L 341.007586 856.101568 
L 343.546489 851.24087 
L 346.085391 846.949486 
L 348.116513 843.911092 
L 350.147635 841.203984 
L 352.178757 838.80601 
L 354.209879 836.692773 
L 356.241001 834.838892 
L 358.779904 832.847677 
L 361.318806 831.174377 
L 363.857709 829.774549 
L 366.396611 828.607903 
L 369.443294 827.465646 
L 372.489977 826.55452 
L 376.044441 825.724571 
L 380.106685 825.013987 
L 384.67671 824.439558 
L 390.262295 823.964519 
L 397.371222 823.594062 
L 407.019052 823.330403 
L 422.252467 823.168224 
L 454.75042 823.103726 
L 578.648864 823.098335 
L 578.648864 823.098335 
" style="fill:none;stroke:#006ba4;stroke-linecap:square;stroke-width:1.5;"/>
   </g>
   <g id="line2d_73">
    <path clip-path="url(#p90778db78c)" d="M 71.376136 972.598717 
L 230.819216 972.487645 
L 245.03707 972.258335 
L 254.177119 971.900264 
L 260.778266 971.426281 
L 265.856071 970.854336 
L 270.426095 970.107632 
L 273.980559 969.315921 
L 277.027242 968.44428 
L 280.073925 967.347823 
L 282.612828 966.22368 
L 285.15173 964.869116 
L 287.690633 963.241654 
L 289.721755 961.711037 
L 291.752877 959.947886 
L 293.783999 957.92302 
L 295.815121 955.605669 
L 297.846243 952.964122 
L 299.877365 949.966655 
L 301.908487 946.58277 
L 303.939609 942.784778 
L 305.970731 938.54969 
L 308.001853 933.861381 
L 310.540756 927.354125 
L 313.079658 920.140842 
L 315.618561 912.267429 
L 318.665244 902.067603 
L 322.727488 887.556092 
L 331.867537 854.504973 
L 334.91422 844.430476 
L 337.453122 836.683655 
L 339.992025 829.609054 
L 342.530928 823.245449 
L 344.56205 818.671496 
L 346.593172 814.5475 
L 348.624294 810.855409 
L 350.655416 807.570864 
L 352.686538 804.665308 
L 354.71766 802.107803 
L 356.748782 799.866523 
L 358.779904 797.909917 
L 360.811026 796.207563 
L 363.349928 794.393615 
L 365.888831 792.880772 
L 368.427733 791.623157 
L 371.474416 790.394661 
L 374.5211 789.416745 
L 378.075563 788.527496 
L 382.137807 787.767302 
L 386.707832 787.153553 
L 392.293417 786.646525 
L 399.402344 786.251453 
L 408.542394 785.980536 
L 422.760248 785.807174 
L 451.195956 785.732158 
L 578.648864 785.723239 
L 578.648864 785.723239 
" style="fill:none;stroke:#ff800e;stroke-linecap:square;stroke-width:1.5;"/>
   </g>
   <g id="line2d_74">
    <path clip-path="url(#p90778db78c)" d="M 71.376136 972.598716 
L 228.280313 972.489602 
L 243.005948 972.250614 
L 252.145997 971.884217 
L 258.747144 971.398894 
L 263.824949 970.81278 
L 267.887193 970.145841 
L 271.441656 969.363781 
L 274.488339 968.501369 
L 277.535023 967.414439 
L 280.073925 966.297644 
L 282.612828 964.948673 
L 285.15173 963.323195 
L 287.182852 961.789706 
L 289.213974 960.017528 
L 291.245096 957.974703 
L 293.276218 955.626776 
L 295.30734 952.93724 
L 297.338462 949.868234 
L 299.369584 946.381566 
L 301.400706 942.440113 
L 303.431828 938.009603 
L 305.46295 933.060809 
L 307.494072 927.572064 
L 309.525195 921.532015 
L 312.064097 913.210759 
L 314.603 904.070107 
L 317.649683 892.137832 
L 321.204146 877.183669 
L 333.390878 824.725919 
L 336.437561 813.126374 
L 338.976464 804.306205 
L 341.515367 796.325677 
L 344.054269 789.206976 
L 346.085391 784.12487 
L 348.116513 779.567279 
L 350.147635 775.506618 
L 352.178757 771.909657 
L 354.209879 768.739801 
L 356.241001 765.95898 
L 358.272123 763.529141 
L 360.303245 761.413359 
L 362.334367 759.576618 
L 364.365489 757.986306 
L 366.904392 756.299629 
L 369.443294 754.89911 
L 371.982197 753.739121 
L 375.02888 752.609696 
L 378.075563 751.713251 
L 381.630027 750.900085 
L 385.692271 750.206436 
L 390.262295 749.647421 
L 395.847881 749.186287 
L 402.956808 748.827399 
L 412.604638 748.57236 
L 427.838053 748.415642 
L 460.843786 748.353145 
L 578.648864 748.348144 
L 578.648864 748.348144 
" style="fill:none;stroke:#ababab;stroke-linecap:square;stroke-width:1.5;"/>
   </g>
   <g id="line2d_75">
    <path clip-path="url(#p90778db78c)" d="M 71.376136 972.598716 
L 226.249191 972.490248 
L 240.974826 972.25262 
L 250.114875 971.888163 
L 256.716022 971.405137 
L 261.793827 970.821385 
L 265.856071 970.156584 
L 269.410534 969.376283 
L 272.457217 968.514876 
L 275.5039 967.427809 
L 278.042803 966.309243 
L 280.581706 964.955922 
L 283.120608 963.321983 
L 285.15173 961.777275 
L 287.182852 959.988204 
L 289.213974 957.920664 
L 291.245096 955.537367 
L 293.276218 952.798119 
L 295.30734 949.660327 
L 297.338462 946.07982 
L 299.369584 942.012041 
L 301.400706 937.413679 
L 303.431828 932.244751 
L 305.46295 926.471157 
L 307.494072 920.067622 
L 309.525195 913.020898 
L 312.064097 903.312766 
L 314.603 892.648672 
L 317.649683 878.727685 
L 321.204146 861.281161 
L 333.390878 800.080453 
L 336.437561 786.54765 
L 338.976464 776.257453 
L 341.515367 766.946837 
L 343.546489 760.222484 
L 345.577611 754.136404 
L 347.608733 748.668927 
L 349.639855 743.789977 
L 351.670977 739.462167 
L 353.702099 735.643559 
L 355.733221 732.289987 
L 357.764343 729.356914 
L 359.795465 726.800831 
L 361.826587 724.580264 
L 363.857709 722.656424 
L 365.888831 720.993594 
L 368.427733 719.232934 
L 370.966636 717.773269 
L 373.505538 716.565858 
L 376.552222 715.391624 
L 379.598905 714.460567 
L 383.153368 713.616733 
L 387.215612 712.897472 
L 391.785637 712.318183 
L 397.371222 711.840571 
L 404.480149 711.469013 
L 414.127979 711.205052 
L 429.361394 711.042885 
L 461.859347 710.978434 
L 578.648864 710.973048 
L 578.648864 710.973048 
" style="fill:none;stroke:#595959;stroke-linecap:square;stroke-width:1.5;"/>
   </g>
   <g id="patch_15">
    <path d="M 46.0125 985.68 
L 46.0125 697.891765 
" style="fill:none;stroke:#000000;stroke-linecap:square;stroke-linejoin:miter;stroke-width:0.8;"/>
   </g>
   <g id="patch_16">
    <path d="M 604.0125 985.68 
L 604.0125 697.891765 
" style="fill:none;stroke:#000000;stroke-linecap:square;stroke-linejoin:miter;stroke-width:0.8;"/>
   </g>
   <g id="patch_17">
    <path d="M 46.0125 985.68 
L 604.0125 985.68 
" style="fill:none;stroke:#000000;stroke-linecap:square;stroke-linejoin:miter;stroke-width:0.8;"/>
   </g>
   <g id="patch_18">
    <path d="M 46.0125 697.891765 
L 604.0125 697.891765 
" style="fill:none;stroke:#000000;stroke-linecap:square;stroke-linejoin:miter;stroke-width:0.8;"/>
   </g>
   <g id="legend_3">
    <g id="patch_19">
     <path d="M 53.0125 764.604265 
L 130.776562 764.604265 
Q 132.776562 764.604265 132.776562 762.604265 
L 132.776562 704.891765 
Q 132.776562 702.891765 130.776562 702.891765 
L 53.0125 702.891765 
Q 51.0125 702.891765 51.0125 704.891765 
L 51.0125 762.604265 
Q 51.0125 764.604265 53.0125 764.604265 
z
" style="fill:#ffffff;opacity:0.8;stroke:#cccccc;stroke-linejoin:miter;"/>
    </g>
    <g id="line2d_76">
     <path d="M 55.0125 710.990202 
L 75.0125 710.990202 
" style="fill:none;stroke:#006ba4;stroke-linecap:square;stroke-width:1.5;"/>
    </g>
    <g id="line2d_77"/>
    <g id="text_59">
     <!-- L=8000 -->
     <g transform="translate(83.0125 714.490202)scale(0.1 -0.1)">
      <defs>
       <path d="M 9.8125 72.90625 
L 19.671875 72.90625 
L 19.671875 8.296875 
L 55.171875 8.296875 
L 55.171875 0 
L 9.8125 0 
z
" id="DejaVuSans-76"/>
      </defs>
      <use xlink:href="#DejaVuSans-76"/>
      <use x="55.712891" xlink:href="#DejaVuSans-61"/>
      <use x="139.501953" xlink:href="#DejaVuSans-56"/>
      <use x="203.125" xlink:href="#DejaVuSans-48"/>
      <use x="266.748047" xlink:href="#DejaVuSans-48"/>
      <use x="330.371094" xlink:href="#DejaVuSans-48"/>
     </g>
    </g>
    <g id="line2d_78">
     <path d="M 55.0125 725.668327 
L 75.0125 725.668327 
" style="fill:none;stroke:#ff800e;stroke-linecap:square;stroke-width:1.5;"/>
    </g>
    <g id="line2d_79"/>
    <g id="text_60">
     <!-- L=10000 -->
     <g transform="translate(83.0125 729.168327)scale(0.1 -0.1)">
      <use xlink:href="#DejaVuSans-76"/>
      <use x="55.712891" xlink:href="#DejaVuSans-61"/>
      <use x="139.501953" xlink:href="#DejaVuSans-49"/>
      <use x="203.125" xlink:href="#DejaVuSans-48"/>
      <use x="266.748047" xlink:href="#DejaVuSans-48"/>
      <use x="330.371094" xlink:href="#DejaVuSans-48"/>
      <use x="393.994141" xlink:href="#DejaVuSans-48"/>
     </g>
    </g>
    <g id="line2d_80">
     <path d="M 55.0125 740.346452 
L 75.0125 740.346452 
" style="fill:none;stroke:#ababab;stroke-linecap:square;stroke-width:1.5;"/>
    </g>
    <g id="line2d_81"/>
    <g id="text_61">
     <!-- L=12000 -->
     <g transform="translate(83.0125 743.846452)scale(0.1 -0.1)">
      <use xlink:href="#DejaVuSans-76"/>
      <use x="55.712891" xlink:href="#DejaVuSans-61"/>
      <use x="139.501953" xlink:href="#DejaVuSans-49"/>
      <use x="203.125" xlink:href="#DejaVuSans-50"/>
      <use x="266.748047" xlink:href="#DejaVuSans-48"/>
      <use x="330.371094" xlink:href="#DejaVuSans-48"/>
      <use x="393.994141" xlink:href="#DejaVuSans-48"/>
     </g>
    </g>
    <g id="line2d_82">
     <path d="M 55.0125 755.024577 
L 75.0125 755.024577 
" style="fill:none;stroke:#595959;stroke-linecap:square;stroke-width:1.5;"/>
    </g>
    <g id="line2d_83"/>
    <g id="text_62">
     <!-- L=14000 -->
     <g transform="translate(83.0125 758.524577)scale(0.1 -0.1)">
      <use xlink:href="#DejaVuSans-76"/>
      <use x="55.712891" xlink:href="#DejaVuSans-61"/>
      <use x="139.501953" xlink:href="#DejaVuSans-49"/>
      <use x="203.125" xlink:href="#DejaVuSans-52"/>
      <use x="266.748047" xlink:href="#DejaVuSans-48"/>
      <use x="330.371094" xlink:href="#DejaVuSans-48"/>
      <use x="393.994141" xlink:href="#DejaVuSans-48"/>
     </g>
    </g>
   </g>
  </g>
 </g>
 <defs>
  <clipPath id="p5778a47175">
   <rect height="287.788235" width="558" x="46.0125" y="7.2"/>
  </clipPath>
  <clipPath id="p2734994011">
   <rect height="287.788235" width="558" x="46.0125" y="352.545882"/>
  </clipPath>
  <clipPath id="p90778db78c">
   <rect height="287.788235" width="558" x="46.0125" y="697.891765"/>
  </clipPath>
 </defs>
</svg>
